<?xml version="1.0" encoding="utf-8"?>
<!-- Generator: Adobe Illustrator 25.4.1, SVG Export Plug-In . SVG Version: 6.00 Build 0)  -->
<svg version="1.1" id="gradient" xmlns="http://www.w3.org/2000/svg" xmlns:xlink="http://www.w3.org/1999/xlink" x="0px" y="0px"
	 viewBox="0 0 512 512" enable-background="new 0 0 512 512" xml:space="preserve">
<linearGradient id="SVGID_1_" gradientUnits="userSpaceOnUse" x1="30.3768" y1="468.0691" x2="481.6233" y2="16.8226">
	<stop  offset="0" style="stop-color:#5EBCE5"/>
	<stop  offset="0.5122" style="stop-color:#B678E6"/>
	<stop  offset="1" style="stop-color:#E25B61"/>
</linearGradient>
<path fill="url(#SVGID_1_)" d="M293.21,323.489c-13.581,0-26.372,5.212-36.204,14.715c-9.833-9.503-22.623-14.715-36.206-14.715
	c-14.146,0-27.434,5.655-37.414,15.923c-20.457,21.044-20.457,55.286-0.001,76.329l67.885,69.835
	c1.506,1.55,3.575,2.424,5.736,2.424s4.23-0.874,5.736-2.424l67.884-69.834c20.457-21.044,20.457-55.286,0-76.33
	C320.645,329.144,307.357,323.489,293.21,323.489z M319.152,404.591l-62.146,63.932l-62.147-63.933
	c-14.479-14.895-14.479-39.131,0-54.025c6.942-7.142,16.155-11.075,25.942-11.075s19.001,3.933,25.943,11.075l4.525,4.655
	c1.506,1.55,3.575,2.424,5.736,2.424s4.23-0.874,5.736-2.424l4.525-4.655c6.942-7.143,16.156-11.075,25.942-11.075
	c9.787,0,19.001,3.933,25.943,11.075C333.633,365.459,333.633,389.695,319.152,404.591z M50.264,88.243
	c1.506,1.55,3.575,2.424,5.736,2.424s4.23-0.874,5.736-2.424l26.816-27.587c9.889-10.174,9.889-26.727,0-36.9
	C83.69,18.754,77.209,16,70.303,16C65.129,16,60.194,17.545,56,20.423C51.806,17.545,46.871,16,41.697,16
	c-6.906,0-13.388,2.754-18.25,7.756c-9.889,10.174-9.889,26.727,0.001,36.901L50.264,88.243z M34.92,34.908
	C36.743,33.032,39.15,32,41.697,32c2.548,0,4.955,1.033,6.777,2.907l1.788,1.84c1.507,1.551,3.576,2.425,5.737,2.425
	s4.23-0.874,5.737-2.425l1.787-1.839C65.348,33.033,67.755,32,70.303,32c2.547,0,4.954,1.033,6.777,2.908
	c3.911,4.024,3.911,10.571,0.001,14.595L56,71.189L34.92,49.504C31.009,45.479,31.009,38.933,34.92,34.908z M450.264,88.243
	c1.506,1.55,3.575,2.424,5.736,2.424s4.23-0.874,5.736-2.424l26.816-27.587c9.889-10.174,9.889-26.727,0-36.9
	C483.69,18.754,477.209,16,470.303,16c-5.174,0-10.108,1.545-14.303,4.423C451.806,17.545,446.871,16,441.697,16
	c-6.906,0-13.388,2.754-18.25,7.756c-9.889,10.174-9.889,26.727,0.001,36.901L450.264,88.243z M434.92,34.908
	c1.823-1.875,4.23-2.908,6.777-2.908c2.548,0,4.955,1.033,6.777,2.907l1.788,1.84c1.507,1.551,3.576,2.425,5.737,2.425
	s4.23-0.874,5.737-2.425l1.787-1.839c1.823-1.875,4.23-2.908,6.778-2.908c2.547,0,4.954,1.032,6.777,2.908
	c3.911,4.024,3.911,10.571,0.001,14.595L456,71.189l-21.08-21.686C431.009,45.479,431.009,38.933,434.92,34.908z M470.303,309.333
	c-5.174,0-10.109,1.546-14.303,4.423c-4.194-2.877-9.129-4.423-14.303-4.423c-6.907,0-13.389,2.755-18.25,7.757
	c-9.89,10.173-9.89,26.727-0.001,36.898l26.817,27.588c1.506,1.55,3.575,2.424,5.736,2.424s4.23-0.874,5.736-2.424l26.816-27.587
	c9.89-10.173,9.89-26.727,0-36.899C483.691,312.088,477.21,309.333,470.303,309.333z M477.079,342.838L456,364.522l-21.08-21.686
	c-3.911-4.023-3.911-10.571,0-14.595c1.823-1.876,4.23-2.909,6.777-2.909c2.548,0,4.955,1.033,6.779,2.91l1.788,1.839
	c1.506,1.549,3.575,2.423,5.735,2.423s4.229-0.874,5.735-2.423l1.789-1.84c1.823-1.876,4.23-2.909,6.778-2.909
	c2.547,0,4.954,1.033,6.777,2.909C480.991,332.266,480.991,338.813,477.079,342.838z M41.697,309.333
	c-6.907,0-13.389,2.755-18.25,7.757c-9.888,10.174-9.889,26.727-0.001,36.898l26.817,27.588C51.77,383.126,53.839,384,56,384
	s4.23-0.874,5.736-2.424l26.816-27.587c9.89-10.173,9.89-26.727,0-36.899c-4.861-5.002-11.343-7.757-18.25-7.757
	c-5.174,0-10.109,1.546-14.303,4.423C51.806,310.879,46.871,309.333,41.697,309.333z M63.524,328.242
	c1.823-1.876,4.23-2.909,6.778-2.909c2.547,0,4.954,1.033,6.777,2.909c3.911,4.023,3.911,10.571-0.001,14.596L56,364.522
	l-21.08-21.686c-3.911-4.023-3.911-10.571,0-14.595c1.823-1.876,4.23-2.909,6.777-2.909c2.548,0,4.955,1.033,6.779,2.91l1.788,1.839
	c1.506,1.549,3.575,2.423,5.735,2.423s4.229-0.874,5.735-2.423L63.524,328.242z M495.979,449.797
	c-0.284-3.913-3.365-7.042-7.273-7.388l-21.668-1.916c-15.983-1.414-31.281-7.97-43.353-18.51l-25.552-107.412
	c3.571-1.762,6.846-4.101,9.673-6.967c15.283-15.489,25.883-34.899,30.652-56.129c4.771-21.23,3.493-43.309-3.694-63.848
	L380.011,31.165c-1.354-3.869-5.416-6.091-9.402-5.141l-93.394,22.217c-3.988,0.949-6.613,4.759-6.08,8.824l21.564,164.357
	c2.83,21.574,11.63,41.863,25.449,58.672c13.818,16.809,32.022,29.366,52.644,36.315c3.715,1.252,7.583,1.881,11.459,1.881
	c0.105,0,0.211-0.008,0.317-0.009l25.549,107.4c-6.031,14.849-16.739,27.592-30.376,36.053l-18.484,11.468
	c-3.334,2.068-4.676,6.25-3.168,9.872c1.263,3.035,4.214,4.927,7.383,4.927c0.613,0,1.235-0.071,1.854-0.218l124.525-29.622
	C493.669,457.253,496.264,453.71,495.979,449.797z M367.292,43.26l24.309,69.464c-15.285,0.485-30.272-2.105-44.671-7.771
	c-17.544-6.904-35.847-9.834-54.521-8.741l-4.471-34.074L367.292,43.26z M330.508,269.934
	c-11.916-14.494-19.505-31.988-21.945-50.593l-14.065-107.208c15.946-0.769,31.58,1.807,46.573,7.708
	c15.161,5.967,30.886,8.966,46.926,8.966c3.027,0,6.067-0.12,9.116-0.334l22.55,64.44c6.197,17.71,7.299,36.748,3.186,55.055
	s-13.253,35.043-26.432,48.4c-2.621,2.656-5.926,4.518-9.558,5.381c-3.63,0.864-7.42,0.69-10.958-0.501
	C358.12,295.256,342.424,284.427,330.508,269.934z M402.389,462.52c6.893-6.834,12.7-14.74,17.151-23.385
	c7.867,5.715,16.611,10.158,25.844,13.157L402.389,462.52z M152.743,473.202l-18.484-11.468
	c-13.636-8.46-24.345-21.204-30.376-36.053l25.549-107.4c0.106,0.001,0.211,0.009,0.317,0.009c3.876,0,7.745-0.629,11.46-1.881
	c20.62-6.949,38.824-19.507,52.643-36.315c13.819-16.809,22.619-37.098,25.449-58.672l21.564-164.357
	c0.533-4.065-2.092-7.875-6.08-8.824l-93.394-22.217c-3.987-0.949-8.049,1.271-9.402,5.141L77.236,187.628
	c-7.188,20.539-8.465,42.617-3.694,63.848c4.77,21.229,15.369,40.64,30.652,56.129c2.827,2.866,6.102,5.205,9.673,6.967
	L88.315,421.983c-12.071,10.54-27.37,17.096-43.353,18.51l-21.668,1.916c-3.908,0.346-6.989,3.475-7.273,7.388
	c-0.285,3.913,2.31,7.456,6.127,8.364l124.525,29.622c0.619,0.146,1.241,0.218,1.854,0.218c3.169,0,6.12-1.893,7.383-4.927
	C157.419,479.452,156.077,475.271,152.743,473.202z M144.708,43.26l79.354,18.878l-4.474,34.099
	c-18.674-1.096-36.977,1.811-54.519,8.715c-14.4,5.667-29.388,8.268-44.675,7.783L144.708,43.26z M89.152,247.968
	c-4.113-18.307-3.012-37.345,3.186-55.055l22.551-64.44c3.048,0.214,6.088,0.334,9.115,0.334c16.039,0,31.766-3,46.926-8.966
	c14.994-5.901,30.627-8.477,46.573-7.708l-14.066,107.209c-2.44,18.604-10.029,36.098-21.945,50.592
	c-11.916,14.493-27.612,25.322-45.392,31.314c-3.538,1.19-7.327,1.365-10.959,0.501c-3.632-0.863-6.937-2.725-9.558-5.381
	C102.405,283.011,93.266,266.274,89.152,247.968z M66.616,452.292c9.232-2.999,17.977-7.442,25.844-13.157
	c4.451,8.645,10.259,16.551,17.151,23.385L66.616,452.292z"/>
</svg>
