<svg width="324" height="216" viewBox="0 0 324 216" fill="none" xmlns="http://www.w3.org/2000/svg">
<path d="M263.25 74.25C278.1 74.25 290.25 62.1 290.25 47.25C290.25 32.4 278.1 20.25 263.25 20.25C248.4 20.25 236.25 32.4 236.25 47.25C236.25 62.1 248.4 74.25 263.25 74.25Z" fill="#0B1846"/>
<path d="M315.9 83.7C313.875 81 309.15 80.325 306.45 82.35L286.875 97.875C281.475 102.6 273.375 101.925 268.65 96.525L215.325 43.2C204.525 32.4 187.65 32.4 176.85 43.2L157.275 62.775C154.575 65.475 154.575 69.525 157.275 72.225C159.975 74.925 164.025 74.925 166.725 72.225L185.625 53.325C191.025 47.925 199.8 47.925 205.2 53.325L216 64.125L186.3 94.5C179.55 101.25 176.85 110.025 178.875 119.475C180.225 126.9 184.95 132.975 191.025 137.025L180.225 147.825C177.525 150.525 173.475 150.525 170.775 147.825L146.475 123.525C143.775 120.825 139.725 120.825 137.025 123.525C134.325 126.225 134.325 130.275 137.025 132.975L161.325 157.275C165.375 161.325 170.1 163.35 175.5 163.35C180.9 163.35 186.3 161.325 189.675 157.275L203.85 143.1L220.725 149.85C225.45 151.875 228.825 156.6 228.825 162V202.5C228.825 206.55 231.525 209.25 235.575 209.25C239.625 209.25 242.325 206.55 242.325 202.5V162C242.325 151.2 235.575 141.075 225.45 137.025L213.975 132.3L249.075 97.2L258.525 106.65C263.925 112.05 270.675 114.75 278.1 114.75C284.175 114.75 290.25 112.725 294.975 108.675L314.55 93.15C317.925 90.45 317.925 86.4 315.9 83.7Z" fill="#0B1846"/>
<path d="M86 34.5C86 33.1193 87.1193 32 88.5 32H151.5C152.881 32 154 33.1193 154 34.5V34.5C154 35.8807 152.881 37 151.5 37H88.5C87.1193 37 86 35.8807 86 34.5V34.5Z" fill="#0B1846"/>
<path d="M0 85.5C0 84.1193 1.11929 83 2.5 83H103.5C104.881 83 106 84.1193 106 85.5V85.5C106 86.8807 104.881 88 103.5 88H2.5C1.11929 88 0 86.8807 0 85.5V85.5Z" fill="#0B1846"/>
<path d="M40 175.5C40 174.119 41.1193 173 42.5 173H113.5C114.881 173 116 174.119 116 175.5V175.5C116 176.881 114.881 178 113.5 178H42.5C41.1193 178 40 176.881 40 175.5V175.5Z" fill="#0B1846"/>
<path d="M85 130.5C85 129.119 86.1193 128 87.5 128H124.5C125.881 128 127 129.119 127 130.5V130.5C127 131.881 125.881 133 124.5 133H87.5C86.1193 133 85 131.881 85 130.5V130.5Z" fill="#0B1846"/>
</svg>
